<svg xmlns="http://www.w3.org/2000/svg" xmlns:xlink="http://www.w3.org/1999/xlink" width="311.622" height="260.128" viewBox="0 0 311.622 260.128">
  <defs>
    <linearGradient id="linear-gradient" y1="0.5" x2="1" y2="0.5" gradientUnits="objectBoundingBox">
      <stop offset="0" stop-color="gray" stop-opacity="0.251"/>
      <stop offset="0.54" stop-color="gray" stop-opacity="0.122"/>
      <stop offset="1" stop-color="gray" stop-opacity="0.102"/>
    </linearGradient>
    <linearGradient id="linear-gradient-2" x1="12.106" y1="0.5" x2="13.106" y2="0.5" xlink:href="#linear-gradient"/>
  </defs>
  <g id="Group_6476" data-name="Group 6476" transform="translate(-27 -52.513)">
    <ellipse id="Ellipse_487" data-name="Ellipse 487" cx="145.734" cy="130.064" rx="145.734" ry="130.064" transform="translate(47.153 52.513)" fill="#ff5678" opacity="0.1"/>
    <ellipse id="Ellipse_488" data-name="Ellipse 488" cx="53.735" cy="8.329" rx="53.735" ry="8.329" transform="translate(27 240.779)" fill="#ff5678" opacity="0.1"/>
    <ellipse id="Ellipse_489" data-name="Ellipse 489" cx="20.9" cy="4.318" rx="20.9" ry="4.318" transform="translate(85.662 288.481)" fill="#ff5678" opacity="0.1"/>
    <path id="Path_4118" data-name="Path 4118" d="M126.107,510.194a19.726,19.726,0,0,0,1.028,19.8,4.9,4.9,0,0,0,1.659,1.79c2.2.865,6.614,2.993,6.614,2.993l10.622-4.174s1.725-9.122,3.355-16.955h0c1.112-5.342,2.187-10.082,2.627-10.913,1.1-2.046,0-24.325,0-24.325s-10.622-.712-13.543,7.476l-1.278,2.5Z" transform="translate(-84.415 -286.951)" fill="#a8a8a8"/>
    <path id="Path_4119" data-name="Path 4119" d="M168.033,512.663c6.458,7.4,9.182,1,9.182,1h0c1.112-5.342,2.187-10.082,2.627-10.913,1.1-2.046,0-24.325,0-24.325s-10.622-.712-13.543,7.476l-1.278,2.5C164.2,494.952,163.394,507.336,168.033,512.663Z" transform="translate(-112.238 -286.958)" fill="#fff" opacity="0.1"/>
    <path id="Path_4120" data-name="Path 4120" d="M180.59,477.69l37.49-4.33,6.689-44.013-5.058-11.431a46.318,46.318,0,0,0-8.748-13.2,26.833,26.833,0,0,0-8.86-6.561,13.309,13.309,0,0,0-1.353-.462,3.5,3.5,0,0,0-3.124.553c-4.624,3.277-6.276,17.211-6.811,23.918a74.854,74.854,0,0,1-1.115,8.213Z" transform="translate(-123.377 -231.357)" fill="#a8a8a8"/>
    <path id="Path_4121" data-name="Path 4121" d="M243,428.866l-7.81,19.213c4.093-2.993,10.157-19.292,10.157-19.292l5.433,18.582-4.33-19.585a61.256,61.256,0,0,0,.55-12.853c-.344-4.917-4.958-12.809-7.464-16.783a13.3,13.3,0,0,0-1.353-.462,3.5,3.5,0,0,0-3.124.553c1.968,3.952,6.889,13.834,8.388,16.77C245.351,418.709,243,428.866,243,428.866Z" transform="translate(-160.829 -231.35)" fill="#fff" opacity="0.1"/>
    <path id="Path_4122" data-name="Path 4122" d="M280.89,545.726h20.341a6.17,6.17,0,0,0,6.164-6.483c-.45-8.723-1.59-24.275-4.3-34.147-1.465-5.327-3.168-8.123-4.73-9.5a4.614,4.614,0,0,0-2.69-1.265,3.53,3.53,0,0,0-2.187.531c-3.777,3.621-8.188,22.675-8.188,22.675Z" transform="translate(-192.342 -297.896)" fill="#a8a8a8"/>
    <path id="Path_4123" data-name="Path 4123" d="M307.192,587.329a9.987,9.987,0,0,1,0,7.607l-4.533,2.24s-12.184-5.164-10.7-15.749c0,0,.4-2.187,4.6-2.018A11.894,11.894,0,0,1,307.192,587.329Z" transform="translate(-199.864 -356.398)" fill="#fff" opacity="0.1"/>
    <path id="Path_4124" data-name="Path 4124" d="M312.855,501.033c-.141-3.711,1.874-5,3.54-5.408a4.615,4.615,0,0,0-2.69-1.265,7.142,7.142,0,0,0-2.346,3.749l-4.249,20.71S313.093,507.253,312.855,501.033Z" transform="translate(-210.37 -297.925)" fill="#fff" opacity="0.1"/>
    <path id="Path_4125" data-name="Path 4125" d="M192.911,568.14l10.072,13.777,1.746,11.372-6.473,3.2-9.332,2.062a8.971,8.971,0,0,1-2.74.178l-25.465-2.24,3.465-8.032,11.965-16.8Z" transform="translate(-109.714 -348.655)" fill="#a8a8a8"/>
    <path id="Path_4126" data-name="Path 4126" d="M196.61,552.988s6.873.472,4.293,12.281-29.133,12.756-29.133,12.756a69.761,69.761,0,0,1,14.321-17.161c.975-.8,1.915-1.64,2.812-2.534C190.9,556.334,194.717,552.826,196.61,552.988Z" transform="translate(-117.312 -338.233)" fill="#fff" opacity="0.1"/>
    <path id="Path_4127" data-name="Path 4127" d="M271.07,581.5s9.313,8.476,8.435,21.519" transform="translate(-185.59 -357.841)" opacity="0.1"/>
    <path id="Path_4128" data-name="Path 4128" d="M297.3,496.06a65.068,65.068,0,0,0-10.869,32.994" transform="translate(-196.15 -299.094)" opacity="0.1"/>
    <path id="Path_4129" data-name="Path 4129" d="M198.279,478.43s4.73,21.478-7.079,37.668" transform="translate(-130.672 -286.972)" opacity="0.1"/>
    <path id="Path_4133" data-name="Path 4133" d="M184.739,363.294a3.5,3.5,0,0,0-.722-.35c-.837-.312-1.731-.394-2.568-.694a3.677,3.677,0,0,1-1.29-.762c-.062-.062-.122-.125-.178-.191.312-.2.6-.394.906-.578a10.734,10.734,0,0,0-3.768-3.749c.5-.74,1.637-.681,2.3-1.278a2.187,2.187,0,0,0,.625-1.228,8.486,8.486,0,0,0-.366-3.708,45.712,45.712,0,0,0-2.156-6.982,27.506,27.506,0,0,1-1.168-2.83c-.809-2.693-.244-5.623-.856-8.376a5.875,5.875,0,0,1-.294-2.671c.341-1.356,1.856-2.159,2.187-3.515,1.2-4.827,1.415-9.835,2.1-14.762a19,19,0,0,0,.253-2.834c0-1-.178-1.984-.25-2.977-.194-2.79.366-5.577.606-8.363a8.748,8.748,0,0,1,1.134,2.8,11.288,11.288,0,0,1,.066,2.774,13.028,13.028,0,0,1-.2,1.846c-.153.725-.422,1.418-.6,2.143a6.626,6.626,0,0,0,.3,4.3c.425.937,1.359,1.806,2.331,1.525a2.517,2.517,0,0,0,1.378-1.5,9.132,9.132,0,0,0,.828-6.4c-.415-1.406-1.328-2.677-1.412-4.146a10.714,10.714,0,0,1,.137-1.753c.391-3.393-.453-6.8-.64-10.213a19.922,19.922,0,0,0-.172-2.984c-.025-.116-.053-.231-.087-.341a.731.731,0,0,1,.225.1,2.037,2.037,0,0,0-.044-1.746,4.445,4.445,0,0,1-.294-.55c-.119-.312-.1-.675-.244-.975a4.162,4.162,0,0,0-.312-.453,3.636,3.636,0,0,1-.434-2.049q-.072-5.548-.312-11.084a18.153,18.153,0,0,0-.847-5.552,8.323,8.323,0,0,0-2.937-3.9,6.839,6.839,0,0,0-.659-.412,2.287,2.287,0,0,0,.187-.844,2.021,2.021,0,0,0,0-.275l-.019-.156h0a6.592,6.592,0,0,0-.625-1.874,5.267,5.267,0,0,1-.6-2.049,3.182,3.182,0,0,1,.022-.387h0c.106-.9.575-1.743.74-2.643a4.531,4.531,0,0,0,.069-.847v-.3a8.516,8.516,0,0,0-1-3.155c-.156-.312-.312-.625-.487-.937-.081-.584-.172-1.168-.262-1.749-.05-.337-.1-.675-.175-1.009q-.053-.25-.122-.487c.484-.456.2-1.125-.106-1.743-.6-1.175-.472-2.577-.725-3.871a11.7,11.7,0,0,0-.918-2.6,5.792,5.792,0,0,0-1-1.637,6.112,6.112,0,0,0-1.29-.937,4.108,4.108,0,0,0-1.281-.578c-.284-.056-.575-.053-.856-.119a2.711,2.711,0,0,1-.525-.191,3.57,3.57,0,0,0-1.122-.409,2.5,2.5,0,0,0-1.081.206,3.977,3.977,0,0,1-1.162.312h-.44a.978.978,0,0,0-.6.144,2.252,2.252,0,0,0-.256.262,3.46,3.46,0,0,1-.753.515,7.42,7.42,0,0,0-3.643,6.342,3.143,3.143,0,0,1-.091,1.028c-.091.262-.269.49-.344.759a2.131,2.131,0,0,0-.034.712c.025.366.062.728.1,1.093h0a2.3,2.3,0,0,0-.456,1.009h0a1.377,1.377,0,0,0-.028.194v.025h0a5.657,5.657,0,0,0,.475,1.874,6.661,6.661,0,0,1-.094,3.677,14.481,14.481,0,0,0-.625,2.5h0v.056a3.02,3.02,0,0,0,.144,1.25c.1.284.256.55.35.837a3.45,3.45,0,0,1-.787,2.98h0c-.1.141-.2.275-.312.406h.016l-.016.016.65.459c-.191.1-.381.209-.575.312a5.911,5.911,0,0,0-2.118.784,8.611,8.611,0,0,0-1.718,1.143,7.29,7.29,0,0,0-1.356,1.874,23.559,23.559,0,0,0-1.15,2.424,7.591,7.591,0,0,0-.587,2.1c-.269.572-.491,1.187-.737,1.74-.125.284-.247.569-.369.853l-10.753-26.33-1.668.694.131.312-.347.147.472,1.15c-.069.047-.137.094-.2.144l-.087.069-.175.137-.087.072-.178.15-.066.056-.222.2h0c-.237.216-.465.444-.687.672l-.572.59-.109.116-.191.194-.106.109-.272.272-.019.019-.169.162-.106.1c-.044.044-.091.084-.137.125l-.131.122-.212.181-.062.056-.291.231a8.144,8.144,0,0,1-1.25.8c-1.709.884-3.518,1.625-5.186,2.571a14.934,14.934,0,0,0-2.568,1.8,20.4,20.4,0,0,1-3.315,2.9l-.141.075c-2.262,1.162-4.927.465-7.5.415-.384,0-.762,0-1.137.025a14.363,14.363,0,0,0-5.842,2.04c-1.3.728-2.568,1.546-3.843,2.287-.806.465-1.615.972-2.427,1.49a54.853,54.853,0,0,1-6.308,3.674,13.256,13.256,0,0,1-6.248,1.39h-.028a5.212,5.212,0,0,1-.625-.053c-.2,1.64,1.109,2.962,1.984,4.405a4.465,4.465,0,0,1,.74,2.087,3.75,3.75,0,0,1-.062.837A10.52,10.52,0,0,0,89.1,277.5a3.5,3.5,0,0,0,.665,1.643c.556.794,1.328,1.5,1.853,2.327a12.54,12.54,0,0,1,1.309,4.243,8.926,8.926,0,0,0,1.028,2.94,12.559,12.559,0,0,0,2.674,2.709c.178.153.353.312.522.469.125.112.247.231.362.353,1.134,1.159,1.978,2.946,1.293,4.4-.022.05-.047.094-.072.141a1.245,1.245,0,0,0,.172.1c.872.425,1.965-.256,2.681-.978.353-.353.687-.728,1.012-1.109.872-.969,1.671-2.018,2.5-3.024.225-.272.45-.537.681-.8a11.559,11.559,0,0,1,3.087-2.5,11.339,11.339,0,0,1,1.893-.769c.968-.312,1.968-.544,2.94-.85a24.148,24.148,0,0,0,3.871-1.625,59.529,59.529,0,0,0,6.248-3.874l.312-.2a10.709,10.709,0,0,0,1.859-1.484c.1-.109.2-.222.287-.337.487-.625.8-1.365,1.25-2.015a6.482,6.482,0,0,1,1.753-1.69c1.928-1.3,4.486-1.79,6.776-2.5h.025a26.337,26.337,0,0,0,10.675-6.339l1.712,4.193q-.266.743-.5,1.5a12.217,12.217,0,0,1-1.44,3.593,2.681,2.681,0,0,0-.544.965,3.124,3.124,0,0,1-.128.775c-.106.212-.328.353-.419.572-.131.312.041.715-.134,1.009a1.587,1.587,0,0,1-.3.312,2.074,2.074,0,0,0-.565,1.59,5.57,5.57,0,0,1-.141,1.724,4.124,4.124,0,0,1,.4-.209,1.877,1.877,0,0,0-.034.312,3.481,3.481,0,0,0,.109.878,6.932,6.932,0,0,0,.912,1.824,12.966,12.966,0,0,0,.978,1.406,12.809,12.809,0,0,0,2.068,1.849l3.149,2.431-.312,1.315a36.761,36.761,0,0,0-1.415,8.388,36.146,36.146,0,0,0,.253,4.027l.272,2.743c.219,2.209.437,4.418.678,6.626a16.97,16.97,0,0,0,.806,4.13c.744,2-.078,4.264.237,6.383.25,1.659.744,3.374.247,4.977-.2.625-.55,1.225-.806,1.843a13.831,13.831,0,0,0-.759,4.911,20.872,20.872,0,0,0,.159,4.374c.269,1.493.862,2.959.747,4.474-.162,2.153-1.737,3.993-1.928,6.145a9.065,9.065,0,0,0,1.4,4.9c.59,1.122-.234,2.571-.547,3.805-.625,2.421.412,4.952,1.678,7.1a.35.35,0,0,0,.159.169c.144.053.278-.091.372-.212a2.556,2.556,0,0,1,.187-.222c0,.1.019.194.025.287,0,.2.016.406.016.625a6.28,6.28,0,0,0,.425,2.312,4.1,4.1,0,0,0,.175.419,1.932,1.932,0,0,0,.312.5,1.909,1.909,0,0,0,1.25.525,16.185,16.185,0,0,0,3.124-.194c1.1-.094,2.2-.053,3.305-.078a.478.478,0,0,0,.247-.053.422.422,0,0,0,.141-.225,2.5,2.5,0,0,0,.053-1.231,8.729,8.729,0,0,0-.234-.978c-.147-.516-.281-1.034-.409-1.562-.025-.1-.047-.194-.069-.291l.05.022q1.009-2.268,2.021-4.536a4.084,4.084,0,0,0,.519-2.415,7.1,7.1,0,0,0-.762-1.621,9.517,9.517,0,0,1-.659-4.168l-.038-8.035a17.6,17.6,0,0,0,3.124-6.82,22.059,22.059,0,0,1,.184,10.622,9.9,9.9,0,0,0-.3,1.618c-.122,2.227,1.612,4.114,2.074,6.3a1.418,1.418,0,0,1,.034.512,1.921,1.921,0,0,1-.256.594,9.26,9.26,0,0,0-.625,5.089l.366.059a.969.969,0,0,0,.387.381h0a1.911,1.911,0,0,0,.484.2,11.93,11.93,0,0,0,1.821.278c.881.088,1.765.175,2.649.231.35.022.7.041,1.05.05a10.489,10.489,0,0,1,1.47.1,10.623,10.623,0,0,1,1.56.453c2.277.762,4.827,1.2,7.032.247a3.168,3.168,0,0,0,1.284-.909,1.512,1.512,0,0,0-.378-2.349Zm-30.217-89.06c.331.659.662,1.315.937,2a6.9,6.9,0,0,1,.525,4.193c-.1.406-.753.719-.75,1.137a.945.945,0,0,0-.05.1l-2.04-5a17.831,17.831,0,0,1,1.378-2.427Zm-2.24,10.622a8.644,8.644,0,0,1-1.106-1.909c-.037-.084-.078-.166-.116-.25a.75.75,0,0,0,.3-.222c.312-.394.144-.968.191-1.475a3.186,3.186,0,0,1,.5-1.25l1.915,4.686q-.291.762-.544,1.54A10.934,10.934,0,0,1,152.282,284.856Z" transform="translate(-58.979 -116.213)" fill="url(#linear-gradient)"/>
    <path id="Path_4134" data-name="Path 4134" d="M315.785,260.847a5.593,5.593,0,0,0,.481,1.874,6.633,6.633,0,0,1-.091,3.668c-.35,1.25-.937,2.571-.49,3.793.1.287.259.55.353.837.387,1.187-.331,2.437-1.118,3.408l3.09,2.165a3.553,3.553,0,0,0,1.562.747,1.222,1.222,0,0,0,1.368-.809c.041-.194,0-.4.038-.594a1.612,1.612,0,0,1,.865-1.2,2.83,2.83,0,0,1,1.5-.278c1.9.1,3.508,1.35,5.233,2.149a21.056,21.056,0,0,0,3.521,1.168,2.828,2.828,0,0,0,2.062,0,1.955,1.955,0,0,0,.856-1.846,6.04,6.04,0,0,0-.656-2.034,5.174,5.174,0,0,1-.6-2.046,17.034,17.034,0,0,1,.769-3.037,6.923,6.923,0,0,0-.956-4.286,18.161,18.161,0,0,1-1.821-4.061,5.933,5.933,0,0,0-.341-1.284,2.924,2.924,0,0,0-.625-.837,6.994,6.994,0,0,0-4.43-1.809,20.075,20.075,0,0,0-4.858.425,10.16,10.16,0,0,0-1.8.428,11.45,11.45,0,0,0-2.371,1.284A3.088,3.088,0,0,0,315.785,260.847Z" transform="translate(-215.74 -134.38)" fill="#464353"/>
    <g id="Group_6462" data-name="Group 6462" transform="translate(99.171 126.261)" opacity="0.1">
      <path id="Path_4135" data-name="Path 4135" d="M375.17,295.814a1.373,1.373,0,0,0,.019.278c.1-.915.578-1.775.75-2.69A4.445,4.445,0,0,0,376,292.29a3.044,3.044,0,0,1-.059.487A15.8,15.8,0,0,0,375.17,295.814Z" transform="translate(-356.337 -285.245)"/>
      <path id="Path_4136" data-name="Path 4136" d="M318.375,273.07a5.6,5.6,0,0,0-.209-1.874,10.872,10.872,0,0,1-.453-1.456c0,.066-.025.128-.028.194a5.594,5.594,0,0,0,.481,1.874A5.276,5.276,0,0,1,318.375,273.07Z" transform="translate(-316.81 -269.74)"/>
      <path id="Path_4137" data-name="Path 4137" d="M334.963,313.836a1.787,1.787,0,0,1-.837,1.378,2.829,2.829,0,0,1-2.062,0,20.784,20.784,0,0,1-3.521-1.172c-1.725-.8-3.337-2.043-5.233-2.146a2.831,2.831,0,0,0-1.5.278,1.612,1.612,0,0,0-.865,1.2c-.022.2,0,.4-.037.594a1.224,1.224,0,0,1-1.368.809,3.552,3.552,0,0,1-1.562-.747L315.2,312.08c-.1.141-.206.278-.312.406l3.09,2.168a3.551,3.551,0,0,0,1.562.747,1.222,1.222,0,0,0,1.368-.809c.041-.194,0-.4.037-.594a1.612,1.612,0,0,1,.865-1.2,2.83,2.83,0,0,1,1.5-.278c1.9.1,3.508,1.35,5.233,2.146a20.784,20.784,0,0,0,3.521,1.172,2.828,2.828,0,0,0,2.062,0,1.955,1.955,0,0,0,.856-1.846C334.978,313.939,334.969,313.889,334.963,313.836Z" transform="translate(-314.89 -298.718)"/>
      <path id="Path_4138" data-name="Path 4138" d="M317.37,298.269a2.418,2.418,0,0,1,.084.384,2.265,2.265,0,0,0-.084-1.009c-.094-.287-.25-.55-.353-.837a2.612,2.612,0,0,1-.144-.647,2.937,2.937,0,0,0,.144,1.272C317.12,297.719,317.276,297.984,317.37,298.269Z" transform="translate(-316.242 -287.906)"/>
    </g>
    <path id="Path_4139" data-name="Path 4139" d="M310.008,668.289a.41.41,0,0,1-.144.225.478.478,0,0,1-.247.053c-1.112.025-2.224,0-3.333.078a15.938,15.938,0,0,1-3.149.194,1.615,1.615,0,0,1-1.562-1.028,4.1,4.1,0,0,1-.175-.419,6.221,6.221,0,0,1-.428-2.312c0-.209,0-.412,0-.625a4.748,4.748,0,0,0-.091-.681,1.034,1.034,0,0,1,.031-.79,2.763,2.763,0,0,1,2.34-1.034,19.326,19.326,0,0,1,5.7.419c.147.719.312,1.431.487,2.143q.194.784.412,1.562a8.746,8.746,0,0,1,.237.978A2.5,2.5,0,0,1,310.008,668.289Z" transform="translate(-206.042 -413.12)" fill="#464353"/>
    <path id="Path_4140" data-name="Path 4140" d="M311.29,679.647a.41.41,0,0,1-.144.225.478.478,0,0,1-.247.053c-1.112.025-2.224,0-3.333.078a15.933,15.933,0,0,1-3.149.194,1.615,1.615,0,0,1-1.562-1.028,4.089,4.089,0,0,1-.175-.419h.4c1.315,0,2.634-.047,3.949-.047a10.093,10.093,0,0,0,1.19-.066c.394-.047.715-.113,1.075-.156a14.738,14.738,0,0,1,1.618-.066h.444A2.5,2.5,0,0,1,311.29,679.647Z" transform="translate(-207.324 -424.479)" opacity="0.06"/>
    <path id="Path_4141" data-name="Path 4141" d="M364.388,652.877a3.2,3.2,0,0,1-1.293.909c-2.224.937-4.8.516-7.092-.247a10.812,10.812,0,0,0-1.578-.453,10.62,10.62,0,0,0-1.478-.1c-.353,0-.706-.028-1.059-.05-.893-.056-1.784-.144-2.671-.231a12.066,12.066,0,0,1-1.837-.278,1.957,1.957,0,0,1-.49-.2h0a.753.753,0,0,1-.45-.672c.025-.4.437-.625.8-.8a39.061,39.061,0,0,1,10.175-2.477,4.081,4.081,0,0,0,1.022-.312c.391-.156.431.1.625.387a2.412,2.412,0,0,0,.312.369,3.718,3.718,0,0,0,1.3.762c.844.313,1.746.4,2.59.694a3.547,3.547,0,0,1,.728.35,1.506,1.506,0,0,1,.381,2.349Z" transform="translate(-237.413 -403.51)" fill="#464353"/>
    <path id="Path_4142" data-name="Path 4142" d="M376.38,658.619a3.2,3.2,0,0,1-1.293.909c-2.224.937-4.8.515-7.092-.247a10.8,10.8,0,0,0-1.578-.453,10.611,10.611,0,0,0-1.478-.1c-.353,0-.706-.028-1.059-.05.287-.272.581-.537.881-.794a2.624,2.624,0,0,1,.74-.487,2.143,2.143,0,0,1,1.053-.072c1.787.247,3.393,1.5,5.2,1.39a6.392,6.392,0,0,0,2.39-.772,4.171,4.171,0,0,0,1.562-1.112,1.8,1.8,0,0,0,.291-.559,1.506,1.506,0,0,1,.381,2.349Z" transform="translate(-249.404 -409.252)" opacity="0.06"/>
    <path id="Path_4143" data-name="Path 4143" d="M385.92,431.3a2.586,2.586,0,0,1-1.387,1.5c-.981.281-1.924-.6-2.352-1.525a6.585,6.585,0,0,1-.312-4.3c.178-.722.45-1.415.6-2.14a13.03,13.03,0,0,0,.2-1.846,11.285,11.285,0,0,0-.066-2.774c-.5-2.684-2.812-4.686-3.58-7.323a13.665,13.665,0,0,1-.347-4.086,4.2,4.2,0,0,1,.106-1.031,1.61,1.61,0,0,1,.094-.269c.515-1.143,2.043-1.3,3.105-1.965.587-.366,1.921-1.543,2.415-.469a3.533,3.533,0,0,1,.237.747,19.86,19.86,0,0,1,.172,2.98c.191,3.412,1.04,6.817.647,10.21a10.651,10.651,0,0,0-.137,1.75c.084,1.468,1,2.74,1.425,4.146A8.949,8.949,0,0,1,385.92,431.3Z" transform="translate(-259.573 -236.225)" fill="#fbbebe"/>
    <path id="Path_4144" data-name="Path 4144" d="M384.941,405.807a1.053,1.053,0,0,0-.719,0l-2.115.625a13.1,13.1,0,0,0-2.159.784,5.062,5.062,0,0,0-.859.534,1.607,1.607,0,0,1,.094-.269c.515-1.143,2.043-1.3,3.105-1.965.587-.366,1.921-1.543,2.415-.469a3.534,3.534,0,0,1,.237.759Z" transform="translate(-259.862 -236.211)" opacity="0.1"/>
    <path id="Path_4145" data-name="Path 4145" d="M375.865,347.014a.956.956,0,0,0-.856-.069l-2.115.625a13.09,13.09,0,0,0-2.159.784,4.96,4.96,0,0,0-1.028.669,13.886,13.886,0,0,1-1.431-5.717c-.1-1.147-.175-2.3-.219-3.437a15.415,15.415,0,0,1,.05-2.462c.119-.937.39-1.853.559-2.784a12.7,12.7,0,0,0,.194-1.65,16.129,16.129,0,0,0-.166-3.621,22.443,22.443,0,0,0-.868-3.749c-.2-.559-.44-1.1-.659-1.65l-.075-.194a22.772,22.772,0,0,1-.965-3.1c-.1-.431-.106-.884-.437-1.178a5.879,5.879,0,0,1,.937-.037h.187a7.007,7.007,0,0,1,3.574,1.25,8.35,8.35,0,0,1,2.962,3.918,18.03,18.03,0,0,1,.853,5.548q.253,5.536.312,11.078a3.537,3.537,0,0,0,.437,2.049,4.178,4.178,0,0,1,.312.453c.147.312.125.659.244.975a4.931,4.931,0,0,0,.3.55A2.015,2.015,0,0,1,375.865,347.014Z" transform="translate(-250.648 -177.656)" fill="#464353"/>
    <path id="Path_4146" data-name="Path 4146" d="M329.637,289.622c-.312-.1-.625-.212-.937-.312l.65.05A1.312,1.312,0,0,1,329.637,289.622Z" transform="translate(-225.215 -156.935)" fill="#fbbebe"/>
    <path id="Path_4147" data-name="Path 4147" d="M339.018,301.6c-.062.212-.125.425-.194.625a11.932,11.932,0,0,1-.578,1.5,6.992,6.992,0,0,1-1.478,2.143,1.962,1.962,0,0,1-.737.487,2.343,2.343,0,0,1-.725.069q-1.25,0-2.5-.037a8.879,8.879,0,0,1-1.931-.191,6.9,6.9,0,0,1-1.968-.887,11.684,11.684,0,0,1-5.074-6.248,1.035,1.035,0,0,1,.053-.987,1.209,1.209,0,0,1,.8-.272h.037a5.032,5.032,0,0,0,1.9-.653,1.956,1.956,0,0,0,.869-.887,2.393,2.393,0,0,0-.028-1.381l-.694-3.149a3.261,3.261,0,0,0-.553-1.4c.2.072.406.137.625.194,1.931.522,4.043.206,5.936.89a2.529,2.529,0,0,1,1.668,1.487c.366,1.25-.856,2.546-.506,3.8.234.85,1.1,1.34,1.875,1.737l.522.266,1.446.734.2.1.031.016a1.962,1.962,0,0,1,1.1,1.009A1.875,1.875,0,0,1,339.018,301.6Z" transform="translate(-221.803 -157.637)" fill="#fbbebe"/>
    <path id="Path_4148" data-name="Path 4148" d="M342.83,324.6a6.745,6.745,0,0,1-.575,2.312,9.444,9.444,0,0,0-.984,4.061c-.241,4.218-1.843,9.238.453,12.781.056.087.112.175.166.266a4.962,4.962,0,0,0-1.028.669,13.886,13.886,0,0,1-1.431-5.717c-.1-1.147-.175-2.3-.219-3.437a15.412,15.412,0,0,1,.05-2.462c.119-.937.391-1.853.559-2.784a12.7,12.7,0,0,0,.194-1.65,16.129,16.129,0,0,0-.166-3.621,22.441,22.441,0,0,0-.868-3.749c-.2-.559-.441-1.1-.659-1.65l-.075-.194a6.992,6.992,0,0,1-1.478,2.143,1.962,1.962,0,0,1-.737.487,2.345,2.345,0,0,1-.725.069q-1.25,0-2.5-.038a8.882,8.882,0,0,1-1.931-.191,6.9,6.9,0,0,1-1.968-.887,11.684,11.684,0,0,1-5.074-6.248,1.035,1.035,0,0,1,.053-.987,1.209,1.209,0,0,1,.8-.272h.038l2.812,3.477a5.622,5.622,0,0,1,.812,1.215.724.724,0,0,0,.25.372.64.64,0,0,0,.312.056h8.8a2.284,2.284,0,0,0-.387-1.315c-.081.019-.191.025-.022-.025a8.853,8.853,0,0,0-.968-2.9,2.011,2.011,0,0,0-.1-.181,3.33,3.33,0,0,1-.462-1.012,1.283,1.283,0,0,1,1.778.965c.144.312.287.647.416.975,0,.034.031.072.044.106a7.073,7.073,0,0,1,.519,2.028c.019.256.081.581.294.665a.278.278,0,0,0,.106.025,1.181,1.181,0,0,1,1.278.312,2.812,2.812,0,0,1,.625,1.231,6.735,6.735,0,0,0,.444,1.325c.4.769-.212,1.112.515,1.584a2.538,2.538,0,0,1,.856.769,2.4,2.4,0,0,1,.187,1.421Z" transform="translate(-221.803 -173.303)" opacity="0.1"/>
    <path id="Path_4149" data-name="Path 4149" d="M308.862,662.408c.147.719.312,1.431.487,2.143l-.019.044a14.5,14.5,0,0,0-4.449-1.415,4.929,4.929,0,0,0-4,1.315,4.735,4.735,0,0,0-.091-.681,1.034,1.034,0,0,1,.031-.79,2.763,2.763,0,0,1,2.34-1.034A19.324,19.324,0,0,1,308.862,662.408Z" transform="translate(-205.98 -413.148)" opacity="0.1"/>
    <path id="Path_4150" data-name="Path 4150" d="M365.97,328.37c.147,0,.094,0,.022.025S365.8,328.42,365.97,328.37Z" transform="translate(-250.782 -183.793)" opacity="0.1"/>
    <path id="Path_4151" data-name="Path 4151" d="M359.389,648.722a27.134,27.134,0,0,0-3.911,3.027,4.093,4.093,0,0,1-1.234.9,3.6,3.6,0,0,1-1.487.153,50.609,50.609,0,0,1-5.867-.581h0a.753.753,0,0,1-.45-.672c.025-.4.437-.625.8-.8a39.064,39.064,0,0,1,10.175-2.477,4.077,4.077,0,0,0,1.022-.312c.391-.156.431.1.625.387A2.416,2.416,0,0,0,359.389,648.722Z" transform="translate(-237.413 -403.51)" opacity="0.1"/>
    <path id="Path_4152" data-name="Path 4152" d="M298.084,314.345c.459.409.984.74,1.45,1.137a13.115,13.115,0,0,1,2.812,3.983,2.606,2.606,0,0,1-1.434.1,10.284,10.284,0,0,0,.122,4.177,3.874,3.874,0,0,0-1.4,1.734,11.594,11.594,0,0,0-.456,2.187q-.675,4.877-1.356,9.754a1.512,1.512,0,0,1-.312.878,1.678,1.678,0,0,0-.237.234,1.3,1.3,0,0,0-.109.672c-.019.228-.169.5-.4.469a.494.494,0,0,1-.278-.181,6.384,6.384,0,0,1-.625-.775c-1.843,3.537-2.73,7.348-3.705,11.216a27.168,27.168,0,0,0-1.175,12.409l.275,2.743c.222,2.206.444,4.414.684,6.62a16.662,16.662,0,0,0,.815,4.13c.75,2-.081,4.261.237,6.379.25,1.659.747,3.374.247,4.974-.2.641-.55,1.225-.812,1.843a13.837,13.837,0,0,0-.765,4.911,20.618,20.618,0,0,0,.162,4.374c.269,1.5.872,2.962.753,4.474-.166,2.153-1.753,3.993-1.946,6.142a9.015,9.015,0,0,0,1.409,4.892c.6,1.122-.234,2.571-.55,3.805-.625,2.418.415,4.949,1.69,7.095a.341.341,0,0,0,.162.169c.147.053.278-.091.375-.212a4.808,4.808,0,0,1,4.218-1.562,14.118,14.118,0,0,1,4.449,1.415l2.028-4.514a4.041,4.041,0,0,0,.522-2.415,6.994,6.994,0,0,0-.769-1.621,9.467,9.467,0,0,1-.662-4.168l-.038-8.029a17.558,17.558,0,0,0,3.155-6.817,21.869,21.869,0,0,1,.187,10.622,9.633,9.633,0,0,0-.312,1.618c-.122,2.227,1.625,4.111,2.09,6.292a1.353,1.353,0,0,1,.037.512,1.93,1.93,0,0,1-.259.594,9.144,9.144,0,0,0-.625,5.089,50.72,50.72,0,0,0,6.626.709,3.724,3.724,0,0,0,1.487-.153,4.105,4.105,0,0,0,1.234-.906,27.245,27.245,0,0,1,4.646-3.515,10.816,10.816,0,0,0-3.8-3.749c.5-.74,1.65-.681,2.318-1.275a2.187,2.187,0,0,0,.625-1.231,8.364,8.364,0,0,0-.369-3.7,44.04,44.04,0,0,0-2.187-6.982,26.838,26.838,0,0,1-1.175-2.827c-.819-2.693-.247-5.623-.865-8.376a5.771,5.771,0,0,1-.3-2.668c.344-1.353,1.874-2.156,2.212-3.512,1.209-4.827,1.425-9.828,2.112-14.755a18.959,18.959,0,0,0,.247-2.846c0-1-.178-1.984-.25-2.977-.281-3.977.99-7.945.665-11.919a15,15,0,0,0-2.349-6.873c-2.3-3.546-.694-8.563-.453-12.781a9.4,9.4,0,0,1,.981-4.061,6.664,6.664,0,0,0,.578-2.312,2.391,2.391,0,0,0-.175-1.459,2.465,2.465,0,0,0-.853-.769c-.728-.475-.112-.819-.515-1.587a6.665,6.665,0,0,1-.444-1.325,2.786,2.786,0,0,0-.625-1.228,1.181,1.181,0,0,0-1.278-.312c-.3,0-.378-.394-.4-.69a9.735,9.735,0,0,0-.975-3.108,1.7,1.7,0,0,0-.753-.965,1.721,1.721,0,0,0-1.028,0,3.321,3.321,0,0,0,.466,1.015,8.823,8.823,0,0,1,1.062,3.074c-.312.094.312,0,0,0a2.187,2.187,0,0,1,.409,1.34h-8.794a.625.625,0,0,1-.312-.056.75.75,0,0,1-.253-.372,5.414,5.414,0,0,0-.812-1.212l-3.093-3.815a.782.782,0,0,0-.266-.241.719.719,0,0,0-.391,0A7.026,7.026,0,0,0,298.084,314.345Z" transform="translate(-199.029 -173.392)" fill="#ff5678"/>
    <path id="Path_4153" data-name="Path 4153" d="M344.254,482.209a2.979,2.979,0,0,1,1.521.394,1.534,1.534,0,0,1,.756,1.318,3.5,3.5,0,0,1-.815,1.562,4.189,4.189,0,0,0-.481.987.4.4,0,0,0-.025.253c.038.119.166.178.275.231A2.346,2.346,0,0,1,346.862,489c-.028,1.218-1.218,2.206-1.153,3.437a7.063,7.063,0,0,0,.131.762,5.824,5.824,0,0,1-.422,3.09c-.378.981-.893,1.9-1.3,2.874a20.389,20.389,0,0,0-1.25,8.435,16.261,16.261,0,0,1-1.25,5.661,81.37,81.37,0,0,0,.281-11.247c-.044-1.018-.172-1.981-.125-3,.075-1.621.981-3.1,1.212-4.686a23.086,23.086,0,0,0,.066-2.752c.044-1.875.553-3.724.587-5.6C343.685,484.643,343.563,483.275,344.254,482.209Z" transform="translate(-234.099 -289.57)" opacity="0.1"/>
    <path id="Path_4154" data-name="Path 4154" d="M297.6,317.081a8.566,8.566,0,0,0-1.731,1.143A7.373,7.373,0,0,0,294.5,320.1a23.945,23.945,0,0,0-1.159,2.424,5.4,5.4,0,0,0-.5,3.387,11.66,11.66,0,0,0,1.59,2.709,23.05,23.05,0,0,1,1.265,2.952c.55,1.321,1.3,2.552,1.846,3.877a6.867,6.867,0,0,1,.528,4.189c-.1.406-.759.722-.759,1.137,0,.687.993,1.434,1.653,1.634a2.473,2.473,0,0,0,2.209-.625,8.124,8.124,0,0,0,2.346-3.618,37.016,37.016,0,0,0,1.662-6.814c.287-1.693.556-3.39.709-5.1a12.97,12.97,0,0,0-.222-4.6,7.81,7.81,0,0,0-2.134-3.549,5.932,5.932,0,0,0-3.324-1.859A5.478,5.478,0,0,0,297.6,317.081Z" transform="translate(-200.479 -175.459)" fill="#464353"/>
    <path id="Path_4155" data-name="Path 4155" d="M293.116,408.242a1.493,1.493,0,0,1-.7,1.04,4.1,4.1,0,0,1-1.19.487,4.944,4.944,0,0,1-2.571.253,5.161,5.161,0,0,1-1.806-1.028l-9.46-7.242a12.776,12.776,0,0,1-2.084-1.849,13.309,13.309,0,0,1-.987-1.4,6.872,6.872,0,0,1-.918-1.824,3.339,3.339,0,0,1-.113-.878,1.653,1.653,0,0,1,.2-.8c.228-.381.715-.459,1.115-.565a11.7,11.7,0,0,1,4.115-.312.559.559,0,0,1,.556.378c.209.384.391.784.578,1.184a8.561,8.561,0,0,0,1.115,1.909,16.092,16.092,0,0,0,1.39,1.34c1,.937,1.818,2.062,2.884,2.924a24.079,24.079,0,0,0,4.139,2.327,7.644,7.644,0,0,1,3.5,3.108A1.822,1.822,0,0,1,293.116,408.242Z" transform="translate(-187.115 -228.958)" fill="#fbbebe"/>
    <path id="Path_4156" data-name="Path 4156" d="M337.749,260.716a7.735,7.735,0,1,1-.216-1.812A7.736,7.736,0,0,1,337.749,260.716Z" transform="translate(-220.8 -131.956)" opacity="0.1"/>
    <path id="Path_4157" data-name="Path 4157" d="M337.749,259.716a7.735,7.735,0,1,1-.216-1.812A7.736,7.736,0,0,1,337.749,259.716Z" transform="translate(-220.8 -131.268)" fill="#fbbebe"/>
    <path id="Path_4158" data-name="Path 4158" d="M279.854,395.667a1.828,1.828,0,0,1-1.325.053c-1.737-.387-3.655-.665-5.239.078a1.653,1.653,0,0,1,.2-.8c.228-.381.715-.459,1.115-.565a11.7,11.7,0,0,1,4.115-.312.559.559,0,0,1,.556.378C279.485,394.867,279.666,395.267,279.854,395.667Z" transform="translate(-187.115 -228.958)" opacity="0.1"/>
    <path id="Path_4159" data-name="Path 4159" d="M275.771,347.579a12.192,12.192,0,0,1-1.453,3.593,2.655,2.655,0,0,0-.55.962,3,3,0,0,1-.128.775c-.106.212-.331.353-.422.572-.134.312.041.715-.137,1.009a1.5,1.5,0,0,1-.3.312,2.186,2.186,0,0,0-.54,1.6,5.456,5.456,0,0,1-.144,1.721c1.65-.984,3.749-.69,5.623-.272.522.116,1.168.2,1.506-.216s.144-.968.191-1.471a5.845,5.845,0,0,1,.79-1.8,21.383,21.383,0,0,0,.659-2.121c.5-1.471,1.562-2.671,2.246-4.061a3.9,3.9,0,0,0,.444-1.543,4.605,4.605,0,0,0-.534-2,27.39,27.39,0,0,0-2.312-4.127c-.4-.584-1.081-1.665-1.7-.731a17.514,17.514,0,0,0-1.181,2.537A46.435,46.435,0,0,0,275.771,347.579Z" transform="translate(-186.298 -191.39)" fill="#464353"/>
    <path id="Path_4160" data-name="Path 4160" d="M335.238,277.726a6.314,6.314,0,0,1-5.055-2,.775.775,0,0,1-.225-.366.734.734,0,0,1,.144-.512c.375-.578,1.022-.959,1.322-1.581a5.019,5.019,0,0,0,.225-2.018c.05-1.222.531-2.431.572-3.633a3.8,3.8,0,0,0-.069-.919,5.758,5.758,0,0,1-.262-1.384c.041-.915.865-1.628,1-2.531.178-1.15-.775-2.149-1.734-2.812a10.332,10.332,0,0,0-2.362-1.222,7.691,7.691,0,0,0-1.587-.384,6.186,6.186,0,0,0-2.99.334,4.883,4.883,0,0,0-1.112.594,1.507,1.507,0,0,0-.5.516,1.678,1.678,0,0,0-.131.747,7.961,7.961,0,0,1-.484,3.749c-.312.6-.844,1.081-1.1,1.712a2.845,2.845,0,0,0-.2.822,8.281,8.281,0,0,0-.047.881,9.189,9.189,0,0,0,.837,4.811,12.541,12.541,0,0,1,.8,1.347,1.534,1.534,0,0,1-.078,1.5,1.7,1.7,0,0,1-.625.469,5,5,0,0,1-4,.144,5.064,5.064,0,0,0,1.181-5.648,3.334,3.334,0,0,1-.431-1.25,3.17,3.17,0,0,1,.312-1.143,6.249,6.249,0,0,0,.191-3.661,13.363,13.363,0,0,1-.581-2.228,6.736,6.736,0,0,1,.075-1.731,5.623,5.623,0,0,1,3.852-4.433c.159-.053.312-.1.487-.147a10.39,10.39,0,0,1,2.309-.247,17.527,17.527,0,0,1,5.164.347,6.93,6.93,0,0,1,2.674,1.375,4.828,4.828,0,0,1,1.293,1.709,5.935,5.935,0,0,1,.365,1.181c.072.334.125.672.178,1.009a22.671,22.671,0,0,1,.353,7.251c-.159.937-.437,1.874-.562,2.83A17.105,17.105,0,0,0,335.238,277.726Z" transform="translate(-217.576 -133.664)" fill="#464353"/>
    <circle id="Ellipse_493" data-name="Ellipse 493" cx="0.581" cy="0.581" r="0.581" transform="translate(105.981 145.986)" fill="#fff"/>
    <circle id="Ellipse_494" data-name="Ellipse 494" cx="0.581" cy="0.581" r="0.581" transform="translate(115.788 145.712)" fill="#fff"/>
    <path id="Path_4161" data-name="Path 4161" d="M335.8,234.647l-1.25-2.359a2.284,2.284,0,0,1,.259-.262.99.99,0,0,1,.6-.144Z" transform="translate(-229.237 -117.446)" opacity="0.1"/>
    <path id="Path_4162" data-name="Path 4162" d="M344.691,230.636l-1.415,2.093-.806-2.3a2.556,2.556,0,0,1,1.09-.206A3.623,3.623,0,0,1,344.691,230.636Z" transform="translate(-234.684 -116.31)" opacity="0.1"/>
    <g id="Group_6463" data-name="Group 6463" transform="translate(100.014 124.021)" opacity="0.1">
      <path id="Path_4163" data-name="Path 4163" d="M322.211,316.216a1.7,1.7,0,0,1-.625.469,5.021,5.021,0,0,1-3.552.3,4.867,4.867,0,0,1-.444.472,5,5,0,0,0,4-.144,1.7,1.7,0,0,0,.625-.469,1.346,1.346,0,0,0,.2-1.081A1.109,1.109,0,0,1,322.211,316.216Z" transform="translate(-317.59 -299.143)"/>
      <path id="Path_4164" data-name="Path 4164" d="M320.2,276.806a6.155,6.155,0,0,1,.178,1.25,6.226,6.226,0,0,0-.178-1.874,13.358,13.358,0,0,1-.581-2.228,1.867,1.867,0,0,0-.016-.294,6.973,6.973,0,0,0,.016.918A13.357,13.357,0,0,0,320.2,276.806Z" transform="translate(-318.967 -270.196)"/>
      <path id="Path_4165" data-name="Path 4165" d="M371.883,291.309a13.665,13.665,0,0,0,.169-2.5,13.018,13.018,0,0,1-.169,1.874c-.159.937-.437,1.874-.562,2.83a9.864,9.864,0,0,0-.072,1.546,9.228,9.228,0,0,1,.072-.922C371.446,293.184,371.724,292.256,371.883,291.309Z" transform="translate(-354.482 -280.613)"/>
      <path id="Path_4166" data-name="Path 4166" d="M320.381,298.975a5.141,5.141,0,0,1-.394-.965,1.411,1.411,0,0,0-.037.344,3.334,3.334,0,0,0,.431,1.25,4.721,4.721,0,0,1,.391,1.656A4.842,4.842,0,0,0,320.381,298.975Z" transform="translate(-319.212 -286.939)"/>
      <path id="Path_4167" data-name="Path 4167" d="M363.6,287.849a4.084,4.084,0,0,1,.059.431v-.137a3.8,3.8,0,0,0-.069-.918c-.069-.328-.181-.653-.234-.984a1.388,1.388,0,0,0-.028.225A5.76,5.76,0,0,0,363.6,287.849Z" transform="translate(-349.04 -278.846)"/>
      <path id="Path_4168" data-name="Path 4168" d="M357.394,317.939a1.649,1.649,0,0,1-.134-.159.647.647,0,0,0-.091.419.775.775,0,0,0,.225.366,6.314,6.314,0,0,0,5.055,2c-.053-.206-.106-.409-.156-.625A6.3,6.3,0,0,1,357.394,317.939Z" transform="translate(-344.801 -300.532)"/>
      <path id="Path_4169" data-name="Path 4169" d="M343.627,267.079a.135.135,0,0,1,0-.034c.178-1.15-.775-2.149-1.734-2.812a10.33,10.33,0,0,0-2.362-1.222,7.69,7.69,0,0,0-1.587-.384,6.186,6.186,0,0,0-2.99.334,4.883,4.883,0,0,0-1.112.594,1.506,1.506,0,0,0-.5.516,1.677,1.677,0,0,0-.131.747v.625a1.677,1.677,0,0,1,.131-.747,1.506,1.506,0,0,1,.5-.515,4.881,4.881,0,0,1,1.112-.594,6.185,6.185,0,0,1,2.99-.334,7.686,7.686,0,0,1,1.587.384,10.332,10.332,0,0,1,2.362,1.222A3.731,3.731,0,0,1,343.627,267.079Z" transform="translate(-328.332 -262.572)"/>
      <path id="Path_4170" data-name="Path 4170" d="M328.727,276.372c-.312.6-.844,1.081-1.1,1.712a2.845,2.845,0,0,0-.2.822,8.281,8.281,0,0,0-.047.881v.625a8.287,8.287,0,0,1,.047-.882,2.846,2.846,0,0,1,.2-.82,19.656,19.656,0,0,1,1.1-1.712,6.272,6.272,0,0,0,.484-3.087,5.21,5.21,0,0,1-.484,2.462Z" transform="translate(-324.321 -270.368)"/>
    </g>
    <path id="Path_4171" data-name="Path 4171" d="M336.055,257.743a.91.91,0,0,1-.15.166,1.432,1.432,0,0,1-.366.219c-.909.394-.872-.89-1.346-1.331a1.615,1.615,0,0,0-1.056-.312q-1.372-.069-2.746-.122c-1.528-.056-3.052-.084-4.577-.05q-1.1.019-2.187.091a5.955,5.955,0,0,0-2.468.565,2.614,2.614,0,0,0-.659.515c-.172.187-.353.425-.59.469a5.624,5.624,0,0,1,3.852-4.433,7.732,7.732,0,0,1,10.622,1.328,4.826,4.826,0,0,1,1.293,1.709A5.93,5.93,0,0,1,336.055,257.743Z" transform="translate(-219.171 -131.273)" opacity="0.1"/>
    <path id="Path_4172" data-name="Path 4172" d="M334.834,242.526c-.909.394-.872-.89-1.346-1.331a1.615,1.615,0,0,0-1.056-.312,83.266,83.266,0,0,0-9.51-.081,4.488,4.488,0,0,0-3.124,1.081c-.194.212-.4.487-.687.478-.1-.625-.166-1.275-.212-1.915a2.131,2.131,0,0,1,.037-.719c.078-.269.256-.5.347-.759a3.042,3.042,0,0,0,.094-1.025,7.4,7.4,0,0,1,3.643-6.3,3.31,3.31,0,0,0,.759-.512,2.283,2.283,0,0,1,.259-.262.99.99,0,0,1,.6-.144h.444a4.034,4.034,0,0,0,1.172-.312,2.556,2.556,0,0,1,1.09-.206,3.624,3.624,0,0,1,1.131.409,2.741,2.741,0,0,0,.528.191c.284.066.578.062.862.119a4.208,4.208,0,0,1,1.293.575,6.17,6.17,0,0,1,1.3.937,5.75,5.75,0,0,1,1.006,1.637,11.72,11.72,0,0,1,.937,2.6c.253,1.293.128,2.693.728,3.868C335.5,241.279,335.83,242.1,334.834,242.526Z" transform="translate(-218.465 -116.296)" fill="#fed253"/>
    <path id="Path_4173" data-name="Path 4173" d="M319.25,260.02s6.476-5.892,16.12-1.006C335.37,259.014,324.483,256.536,319.25,260.02Z" transform="translate(-218.718 -134.771)" opacity="0.1"/>
    <path id="Path_4174" data-name="Path 4174" d="M88.922,297.082c-.881-1.443-2.206-2.765-2-4.4a12.874,12.874,0,0,0,6.945-1.34,57.4,57.4,0,0,0,6.364-3.671c.819-.515,1.634-1.022,2.446-1.49,1.287-.737,2.565-1.562,3.874-2.284a14.62,14.62,0,0,1,5.892-2.037,10.735,10.735,0,0,1,1.147-.028c2.593.05,5.28.747,7.56-.415l.141-.075a20.179,20.179,0,0,0,3.343-2.893,14.932,14.932,0,0,1,2.59-1.8c1.684-.937,3.508-1.687,5.23-2.571a7.931,7.931,0,0,0,1.25-.8l.294-.234.066-.056c.072-.059.144-.119.212-.181l.134-.119.137-.125.106-.1.172-.162.019-.022.272-.269.109-.109.191-.2.112-.112c.191-.2.381-.4.575-.59s.456-.456.69-.672h0l.225-.2.066-.056.181-.15.084-.072.178-.137.087-.069c.087-.066.178-.128.269-.191a1.952,1.952,0,0,1,.262-.153l-.584-1.415,1.681-.694,23.181,56.25-1.684.694-13.259-32.179-.094.094a26.618,26.618,0,0,1-10.963,6.523H136.4c-2.309.7-4.892,1.19-6.836,2.484a6.56,6.56,0,0,0-1.765,1.69c-.456.65-.775,1.39-1.25,2.015-.091.116-.191.228-.291.334a10.862,10.862,0,0,1-1.874,1.487l-.3.2a60.756,60.756,0,0,1-6.279,3.871,24.773,24.773,0,0,1-3.9,1.625c-.978.312-1.987.54-2.965.85a11.606,11.606,0,0,0-1.909.769,13.968,13.968,0,0,0-4.13,3.668c-1.053,1.268-2.053,2.612-3.208,3.768-.725.719-1.828,1.4-2.7.978l-.178-.1c.028-.047.05-.094.075-.144.69-1.447-.159-3.233-1.3-4.393-.119-.122-.241-.241-.366-.353s-.35-.312-.528-.469a12.721,12.721,0,0,1-2.7-2.706,8.825,8.825,0,0,1-1.037-2.94,12.491,12.491,0,0,0-1.322-4.239c-.525-.828-1.306-1.534-1.874-2.327a3.546,3.546,0,0,1-.687-1.606,10.421,10.421,0,0,1,.522-3.021,3.77,3.77,0,0,0,.066-.837A4.433,4.433,0,0,0,88.922,297.082Z" transform="translate(-58.957 -141.726)" fill="url(#linear-gradient-2)"/>
    <rect id="Rectangle_1859" data-name="Rectangle 1859" width="1.79" height="59.818" transform="translate(102.848 181.242) rotate(157.6)" fill="#d6d8e1"/>
    <path id="Path_4175" data-name="Path 4175" d="M93.62,312.107a12.25,12.25,0,0,1,1.3,4.168,8.778,8.778,0,0,0,1.022,2.893,12.571,12.571,0,0,0,2.649,2.659c.175.153.35.312.519.462.122.109.244.228.359.344,1.125,1.14,1.959,2.9,1.281,4.321a1.19,1.19,0,0,1-.072.141,1.431,1.431,0,0,0,.172.1c.862.419,1.946-.25,2.659-.959,1.137-1.137,2.121-2.456,3.155-3.7a13.679,13.679,0,0,1,4.061-3.608,11.247,11.247,0,0,1,1.874-.756c.959-.312,1.953-.534,2.915-.834a24.535,24.535,0,0,0,3.836-1.6,60.149,60.149,0,0,0,6.186-3.808l.294-.2a10.729,10.729,0,0,0,1.843-1.459c.1-.106.2-.216.287-.331.481-.625.8-1.34,1.25-1.981a6.454,6.454,0,0,1,1.737-1.662c1.912-1.272,4.449-1.759,6.72-2.443h.025a26.224,26.224,0,0,0,10.778-6.414,1.756,1.756,0,0,0,.54-.793,1.832,1.832,0,0,0-.369-1.265c-.266-.456-.525-.912-.781-1.375a61.385,61.385,0,0,1-3.08-6.476c-.2-.487-.387-.972-.572-1.462q-.709-1.874-1.293-3.8c-.128-.425-.253-.853-.372-1.281-.022-.081-.047-.169-.069-.262-.519-2.084-1.212-6.961-3.349-5.5a12.364,12.364,0,0,0-1.765,1.534c-.416.422-.822.856-1.25,1.275a12.631,12.631,0,0,1-1.1.965,8.1,8.1,0,0,1-1.25.787c-1.7.868-3.49,1.6-5.142,2.527a14.621,14.621,0,0,0-2.549,1.768,19.787,19.787,0,0,1-3.287,2.846l-.137.075c-2.243,1.14-4.883.456-7.435.406a11.225,11.225,0,0,0-1.125.028,14.238,14.238,0,0,0-5.8,2c-1.287.712-2.543,1.518-3.808,2.246-.8.459-1.6.956-2.406,1.465a55.029,55.029,0,0,1-6.248,3.611,12.839,12.839,0,0,1-6.829,1.315c-.2,1.609,1.1,2.909,1.965,4.327a4.3,4.3,0,0,1,.734,2.053,3.627,3.627,0,0,1-.059.822,10.731,10.731,0,0,0-.512,2.974,3.453,3.453,0,0,0,.672,1.571C92.336,310.6,93.1,311.294,93.62,312.107Z" transform="translate(-60.381 -147.063)" fill="#ff7676"/>
    <path id="Path_4176" data-name="Path 4176" d="M306.975,414.71a27.231,27.231,0,0,0,5.511,3.658c2.774,1.271.937,5.833.937,5.833a5.03,5.03,0,0,1-5-2.187C306.365,419.152,306.975,414.71,306.975,414.71Z" transform="translate(-210.219 -243.159)" fill="#fbbebe"/>
    <path id="Path_4193" data-name="Path 4193" d="M306.73,771.064s7-.216,9.11-1.718,10.766-3.3,11.291-.887,10.519,11.981,2.615,12.047-18.36-1.231-20.466-2.515S306.73,771.064,306.73,771.064Z" transform="translate(-210.108 -485.582)" fill="#a8a8a8"/>
    <path id="Path_4194" data-name="Path 4194" d="M329.889,788c-7.9.066-18.364-1.231-20.469-2.5-1.6-.978-2.243-4.483-2.456-6.1h-.234s.444,5.645,2.549,6.926,12.565,2.577,20.466,2.515c2.284-.019,3.071-.831,3.027-2.034C332.457,787.532,331.586,787.985,329.889,788Z" transform="translate(-210.108 -493.915)" opacity="0.2"/>
    <g id="Group_6473" data-name="Group 6473" transform="translate(-20 15)">
      <ellipse id="Ellipse_490" data-name="Ellipse 490" cx="20.9" cy="4.318" rx="20.9" ry="4.318" transform="translate(228.476 271.87)" fill="#ff5678" opacity="0.1"/>
      <path id="Path_4195" data-name="Path 4195" d="M781.842,705.367s-8.245-1.65-10.441-3.849-12.09-6.042-13.19-3.3-14.837,12.09-5.5,13.746,21.981,2.187,24.731,1.1S781.842,705.367,781.842,705.367Z" transform="translate(-514.537 -437.443)" fill="#a8a8a8"/>
      <path id="Path_4196" data-name="Path 4196" d="M752.721,728.6c9.344,1.646,21.981,2.187,24.731,1.1,2.09-.837,3.546-4.858,4.121-6.729l.275.059s-1.65,6.592-4.4,7.692-15.386.55-24.731-1.1c-2.7-.475-3.468-1.593-3.177-3.005C749.774,727.547,750.715,728.256,752.721,728.6Z" transform="translate(-514.542 -455.114)" opacity="0.2"/>
    </g>
    <path id="Path_4197" data-name="Path 4197" d="M556.326,142.479h-1.962a1.375,1.375,0,1,0,0-2.749h-15.9a1.375,1.375,0,1,0,0,2.749h1.962a1.375,1.375,0,0,0,0,2.746h-2.746a1.375,1.375,0,1,0,0,2.749h15.9a1.375,1.375,0,1,0,0-2.749h2.746a1.375,1.375,0,1,0,0-2.746Z" transform="translate(-367.965 -54.086)" fill="#ff5678" opacity="0.1"/>
    <path id="Path_4198" data-name="Path 4198" d="M753.912,297.293H751.95a1.375,1.375,0,0,0,0-2.746H736.039a1.375,1.375,0,1,0,0,2.746H738a1.375,1.375,0,0,0,0,2.746h-2.746a1.375,1.375,0,1,0,0,2.749h15.892a1.375,1.375,0,1,0,0-2.749h2.765a1.375,1.375,0,1,0,0-2.746Z" transform="translate(-474.812 -173.535)" fill="#ff5678" opacity="0.1"/>
    <path id="Path_4199" data-name="Path 4199" d="M461.1,268.653h-1.962a1.375,1.375,0,1,0,0-2.746h-15.9a1.375,1.375,0,1,0,0,2.746H445.2a1.375,1.375,0,1,0,0,2.746h-2.749a1.375,1.375,0,0,0,0,2.749h15.9a1.375,1.375,0,0,0,0-2.749H461.1a1.375,1.375,0,1,0,0-2.746Z" transform="translate(-302.486 -140.842)" fill="#ff5678" opacity="0.1"/>
    <g id="Group_6475" data-name="Group 6475" transform="translate(-12.631 -1.105)">
      <g id="Group_6470" data-name="Group 6470" transform="translate(160.188 140.465)">
        <path id="Path_4201" data-name="Path 4201" d="M157.005,376.384h-5.22v-15.37a3.078,3.078,0,0,0-3.078-3.078h-1.223a3.078,3.078,0,0,0-3.078,3.078v15.37H129.684a1.757,1.757,0,0,1-1.554-2.578l15.582-29.493a3.078,3.078,0,0,0-1.407-4.221l-.92-.434a3.078,3.078,0,0,0-4.029,1.332l-19,35.552a4.174,4.174,0,0,0-.493,1.968h0a4.174,4.174,0,0,0,4.174,4.174h22.374V392.4a3.69,3.69,0,0,0,3.69,3.69h0a3.69,3.69,0,0,0,3.69-3.69v-9.719h5.22a3.15,3.15,0,0,0,3.15-3.15h0a3.15,3.15,0,0,0-3.15-3.15Z" transform="translate(-117.858 -337.562)" fill="#ff5678"/>
        <path id="Path_4203" data-name="Path 4203" d="M166.808,364.132h-5.22V348.761a3.078,3.078,0,0,0-3.078-3.078h-1.223a3.078,3.078,0,0,0-3.078,3.078v15.371H139.486a1.757,1.757,0,0,1-1.554-2.578l15.583-29.493a3.078,3.078,0,0,0-1.407-4.221l-.92-.434a3.078,3.078,0,0,0-4.029,1.332l-19,35.552a4.174,4.174,0,0,0-.493,1.968h0a4.174,4.174,0,0,0,4.174,4.174h22.374v9.719a3.69,3.69,0,0,0,3.69,3.69h0a3.69,3.69,0,0,0,3.69-3.69v-9.719h5.22a3.15,3.15,0,0,0,3.15-3.15h0a3.15,3.15,0,0,0-3.15-3.15Z" transform="translate(-126.221 -327.109)" fill="none" stroke="#3f3d56" stroke-miterlimit="10" stroke-width="1"/>
      </g>
      <g id="Group_6474" data-name="Group 6474" transform="translate(287.413 146.436)">
        <g id="Group_6468" data-name="Group 6468" transform="translate(0)">
          <path id="Path_4201-2" data-name="Path 4201" d="M154.575,377.9h-4.9v-16a3.058,3.058,0,0,0-2.887-3.2h-1.147a3.058,3.058,0,0,0-2.887,3.2v16H128.949a1.622,1.622,0,0,1-1.412-.885,2.005,2.005,0,0,1-.046-1.8l14.615-30.7a3.523,3.523,0,0,0,.186-2.51,3.118,3.118,0,0,0-1.506-1.884l-.863-.452a2.756,2.756,0,0,0-3.779,1.387L118.32,378.066a4.73,4.73,0,0,0-.462,2.048h0a4.147,4.147,0,0,0,3.915,4.345h20.985v10.118a3.666,3.666,0,0,0,3.461,3.841h0a3.666,3.666,0,0,0,3.461-3.841V384.459h4.9a3.129,3.129,0,0,0,2.954-3.279h0a3.129,3.129,0,0,0-2.954-3.279Z" transform="translate(-117.858 -337.17)" fill="#ff5678"/>
          <path id="Path_4203-2" data-name="Path 4203" d="M164.378,365.648h-4.9v-16a3.058,3.058,0,0,0-2.887-3.2h-1.147a3.058,3.058,0,0,0-2.887,3.2v16H138.752a1.622,1.622,0,0,1-1.412-.885,2.005,2.005,0,0,1-.046-1.8l14.615-30.7a3.523,3.523,0,0,0,.186-2.51,3.118,3.118,0,0,0-1.506-1.884l-.863-.452a2.756,2.756,0,0,0-3.779,1.387l-17.825,37.009a4.731,4.731,0,0,0-.462,2.048h0a4.147,4.147,0,0,0,3.915,4.345h20.985v10.118a3.666,3.666,0,0,0,3.461,3.841h0a3.666,3.666,0,0,0,3.461-3.841V372.206h4.9a3.129,3.129,0,0,0,2.954-3.279h0a3.129,3.129,0,0,0-2.954-3.279Z" transform="translate(-125.907 -327.109)" fill="none" stroke="#3f3d56" stroke-miterlimit="10" stroke-width="1"/>
        </g>
        <ellipse id="Ellipse_509" data-name="Ellipse 509" cx="20.495" cy="4.234" rx="20.495" ry="4.234" transform="translate(0.504 58.646)" fill="#ff5678" opacity="0.1"/>
      </g>
      <g id="Group_6469" data-name="Group 6469" transform="translate(173.221 136.09)">
        <ellipse id="Ellipse_492" data-name="Ellipse 492" cx="73.79" cy="11.557" rx="73.79" ry="11.557" transform="translate(0 77.474)" fill="#ff5678" opacity="0.1"/>
        <path id="Path_4179" data-name="Path 4179" d="M677.45,453.061s-.263-25.433,24.9-35.771l5.844-11.118,2.8-6.829a16.617,16.617,0,0,1,11.736-9.905l4.533-1.018,1.4-5.905a16.611,16.611,0,0,1,13.271-12.533,46.472,46.472,0,0,1,8.358-.78,7.193,7.193,0,0,1,6.11,3.577h0s23.843-.263,24.9,12.718c0,0,2.387,11.918,5.831,14.039,0,0,5.827-1.324,11.655,7.154l6.358,21.723s16.689,15.629,11.655,29.918c0,0-6.888,9.8-41.856,3.177,0,0-37.352,11.382-57.234-4.228C717.715,457.3,684.6,463.656,677.45,453.061Z" transform="translate(-672.526 -368.946)" fill="#a8a8a8"/>
        <path id="Path_4180" data-name="Path 4180" d="M728.77,550.679s5.3-7.418,5.034-12.718,1.249-18.211,1.249-18.211" transform="translate(-707.157 -470.538)" fill="none" stroke="#000" stroke-miterlimit="10" stroke-width="1" opacity="0.1"/>
        <path id="Path_4181" data-name="Path 4181" d="M788.24,503.088s5.3-9.8,4.767-15.1c0,0,5.564-10.081,9.8-9.274" transform="translate(-747.288 -442.817)" fill="none" stroke="#000" stroke-miterlimit="10" stroke-width="1" opacity="0.1"/>
        <path id="Path_4182" data-name="Path 4182" d="M877.85,448.435s14.569-5.3,15.365-9.535" transform="translate(-807.758 -415.98)" fill="none" stroke="#000" stroke-miterlimit="10" stroke-width="1" opacity="0.1"/>
        <path id="Path_4183" data-name="Path 4183" d="M894.14,487.554s15.365-6.888,15.365-8.744h7.678s11.128,14.572,9.8,20.929" transform="translate(-818.75 -442.912)" fill="none" stroke="#000" stroke-miterlimit="10" stroke-width="1" opacity="0.1"/>
        <path id="Path_4184" data-name="Path 4184" d="M849.48,538.036s-14.835-1.06-20.136,3.18-14.835,6.357-14.835,6.357-5.564,11.922-7.684,14.039-5.564,9.538-5.564,9.538" transform="translate(-756.075 -482.798)" fill="none" stroke="#000" stroke-miterlimit="10" stroke-width="1" opacity="0.1"/>
        <path id="Path_4185" data-name="Path 4185" d="M949.54,581.46s1.587,5.561,3.707,8.741,5.3,14.569,5.3,14.569" transform="translate(-856.135 -512.181)" fill="none" stroke="#000" stroke-miterlimit="10" stroke-width="1" opacity="0.1"/>
        <path id="Path_4186" data-name="Path 4186" d="M1026.11,631.15s3.363,9.356,6.318,9.447" transform="translate(-907.805 -545.712)" fill="none" stroke="#000" stroke-miterlimit="10" stroke-width="1" opacity="0.1"/>
        <path id="Path_4187" data-name="Path 4187" d="M958.38,507.66s8.735,2.361,12.387,8.081,14.806,10.907,14.806,10.907" transform="translate(-862.1 -462.38)" fill="none" stroke="#000" stroke-miterlimit="10" stroke-width="1" opacity="0.1"/>
        <path id="Path_4188" data-name="Path 4188" d="M969.9,421s0,12.185,3.444,12.185a97.62,97.62,0,0,1,11.128,1.324" transform="translate(-869.874 -403.901)" fill="none" stroke="#000" stroke-miterlimit="10" stroke-width="1" opacity="0.1"/>
        <path id="Path_4189" data-name="Path 4189" d="M906.825,376.5s-.881,21.05-5.385,26.5" transform="translate(-823.676 -373.872)" fill="none" stroke="#000" stroke-miterlimit="10" stroke-width="1" opacity="0.1"/>
        <g id="Group_6467" data-name="Group 6467" transform="translate(21.859 0)">
          <g id="Group_6464" data-name="Group 6464" opacity="0.05">
            <path id="Path_4190" data-name="Path 4190" d="M947.5,427.631l-6.358-21.723c-5.827-8.478-11.655-7.154-11.655-7.154-3.444-2.12-5.827-14.042-5.827-14.042C922.6,371.73,898.761,372,898.761,372h0a7.193,7.193,0,0,0-6.123-3.577c-1.125,0-2.276.036-3.428.13q.976.1,1.87.276l1.854,3.18s23.84-.267,24.9,12.715c0,0,2.387,11.922,5.831,14.042,0,0,5.827-1.327,11.655,7.154l6.357,21.723s16.689,15.629,11.655,29.918c0,0-3.4,4.836-17.534,5.421,19.06.7,23.362-5.421,23.362-5.421C964.193,443.26,947.5,427.631,947.5,427.631Z" transform="translate(-837.283 -368.42)"/>
            <path id="Path_4191" data-name="Path 4191" d="M746.5,639.29a123.694,123.694,0,0,1-16.972,1.857,108.215,108.215,0,0,0,17.99-1.076C747.175,639.807,746.837,639.553,746.5,639.29Z" transform="translate(-729.53 -551.205)"/>
            <path id="Path_4192" data-name="Path 4192" d="M905.774,652.33a108.8,108.8,0,0,1-25.014,3.954,106.084,106.084,0,0,0,28.545-3.327C908.154,652.766,906.987,652.548,905.774,652.33Z" transform="translate(-831.581 -560.004)"/>
          </g>
        </g>
      </g>
      <g id="Group_6471" data-name="Group 6471" transform="translate(208.921 215.631)">
        <ellipse id="Ellipse_491" data-name="Ellipse 491" cx="27.811" cy="4.711" rx="27.811" ry="4.711" transform="translate(0 40.932)" fill="#ff5678" opacity="0.1"/>
        <g id="Group_6466" data-name="Group 6466" transform="translate(7.528 0)">
          <path id="Path_4200" data-name="Path 4200" d="M454.594,324.894c-10.923,0-18.765,7.008-18.765,23.359,0,18.532,7.842,23.437,18.765,23.437s19.232-5.373,19.232-23.437C473.826,328.943,465.517,324.894,454.594,324.894Zm.072,40.645c-7.565,0-11.518-4.438-11.518-17.274,0-11.325,4.114-17.3,11.68-17.3s11.68,3.923,11.68,17.3c0,12.512-4.276,17.274-11.841,17.274Z" transform="translate(-435.829 -323.492)" fill="#363636"/>
          <path id="Path_4205" data-name="Path 4205" d="M474.2,313.866c-10.923,0-18.765,7.008-18.765,23.359,0,18.531,7.842,23.437,18.765,23.437s19.232-5.373,19.232-23.437C493.431,317.915,485.122,313.866,474.2,313.866Zm.072,40.645c-7.565,0-11.518-4.438-11.518-17.274,0-11.325,4.114-17.3,11.68-17.3s11.679,3.923,11.679,17.3c0,12.512-4.276,17.274-11.841,17.274Z" transform="translate(-452.943 -313.866)" fill="none" stroke="#3f3d56" stroke-miterlimit="10" stroke-width="1"/>
          <ellipse id="Ellipse_500" data-name="Ellipse 500" cx="2.161" cy="2.796" rx="2.161" ry="2.796" transform="translate(11.587 17.937)" fill="#2f2e41"/>
          <ellipse id="Ellipse_501" data-name="Ellipse 501" cx="2.161" cy="2.796" rx="2.161" ry="2.796" transform="translate(23.342 18)" fill="#2f2e41"/>
          <path id="Path_4239" data-name="Path 4239" d="M569.38,526.787c0,1.263-1.764,2.288-3.94,2.288s-3.94-1.024-3.94-2.288c0-1.094,1.323-2.009,3.091-2.233a6.379,6.379,0,0,1,.849-.055,6.446,6.446,0,0,1,1.414.152C568.331,524.981,569.38,525.814,569.38,526.787Z" transform="translate(-545.528 -497.73)" fill="#2f2e41"/>
          <ellipse id="Ellipse_502" data-name="Ellipse 502" cx="2.161" cy="2.796" rx="2.161" ry="2.796" transform="translate(12.095 17.301)" fill="none" stroke="#3f3d56" stroke-miterlimit="10" stroke-width="1"/>
          <ellipse id="Ellipse_503" data-name="Ellipse 503" cx="2.161" cy="2.796" rx="2.161" ry="2.796" transform="translate(23.851 17.365)" fill="none" stroke="#3f3d56" stroke-miterlimit="10" stroke-width="1"/>
          <ellipse id="Ellipse_504" data-name="Ellipse 504" cx="3.94" cy="2.288" rx="3.94" ry="2.288" transform="translate(16.48 26.134)" fill="none" stroke="#3f3d56" stroke-miterlimit="10" stroke-width="1"/>
          <path id="Path_4240" data-name="Path 4240" d="M587.413,524.406a.627.627,0,0,1-.168.431.552.552,0,0,1-.4.179H585.57a.593.593,0,0,1-.572-.61.623.623,0,0,1,.1-.348,5.985,5.985,0,0,1,.849-.058,6.055,6.055,0,0,1,1.414.163A.642.642,0,0,1,587.413,524.406Z" transform="translate(-566.04 -497.294)" fill="#fff"/>
          <circle id="Ellipse_505" data-name="Ellipse 505" cx="0.635" cy="0.635" r="0.635" transform="translate(13.62 18.699)" fill="#fff"/>
          <circle id="Ellipse_506" data-name="Ellipse 506" cx="0.635" cy="0.635" r="0.635" transform="translate(25.439 18.699)" fill="#fff"/>
          <circle id="Ellipse_507" data-name="Ellipse 507" cx="0.635" cy="0.635" r="0.635" transform="translate(26.075 24.673)" fill="#ff5678" opacity="0.3"/>
          <circle id="Ellipse_508" data-name="Ellipse 508" cx="0.635" cy="0.635" r="0.635" transform="translate(10.571 24.673)" fill="#ff5678" opacity="0.3"/>
        </g>
      </g>
    </g>
  </g>
</svg>
