<svg xmlns="http://www.w3.org/2000/svg" width="1286.613" height="1176.082" viewBox="0 0 1286.613 1176.082">
  <g id="undraw_social_girl_562b" transform="translate(-0.001 0)">
    <path id="Path_4065" data-name="Path 4065" d="M1268.312,737.175a456.023,456.023,0,0,0-31.959-401.263L507.8,436.788l698.19-145.507A454.453,454.453,0,0,0,845.208,113.66c-251.419,0-455.235,203.815-455.235,455.235a458.705,458.705,0,0,0,4.222,62.012Z" transform="translate(-67.223 -38.962)" fill="#f2f2f2"/>
    <path id="Path_4066" data-name="Path 4066" d="M409.909,519.317c65.8,170.427,231.172,291.333,424.806,291.333,181.7,0,338.511-106.461,411.523-260.4Z" transform="translate(-56.731 174.52)" fill="#f2f2f2"/>
    <path id="Path_4067" data-name="Path 4067" d="M1356.765,823.2c0,178.9-263.769,323.914-589.128,323.914-174.792,0-331.8-41.846-439.685-108.328-70.392-43.364-119.879-97.224-139.731-156.744a184.486,184.486,0,0,1-9.712-58.841c0-178.881,488.208-985.791,589.128-323.9S1356.765,644.321,1356.765,823.2Z" transform="translate(-178.508 28.966)" fill="#ff5678"/>
    <path id="Path_4068" data-name="Path 4068" d="M1057.067,741.263c0,66.054-208.6,119.611-465.946,119.611-99.116,0-191-7.944-266.519-21.495-70.392-43.363-119.879-97.224-139.731-156.744,79.889-36.4,231.885-60.984,406.248-60.984C848.462,621.651,1057.067,675.209,1057.067,741.263Z" transform="translate(-175.16 228.374)" opacity="0.1"/>
    <path id="Path_4069" data-name="Path 4069" d="M634.215,276.231c-36.927-62.4-109.984-65.3-109.984-65.3s-71.19-9.1-116.857,85.925c-42.566,88.574-101.313,174.095-9.458,194.829l16.592-51.64,10.275,55.485a359.4,359.4,0,0,0,39.3.672c98.369-3.176,192.051.929,189.035-34.37C649.11,414.9,669.746,336.268,634.215,276.231Z" transform="translate(-88.642 12.103)" fill="#2f2e41"/>
    <path id="Path_4070" data-name="Path 4070" d="M382.854,622.951c-1.37,6.81-2.383,13.733-4.711,20.277-2.31,6.5-5.878,12.507-7.991,19.072-6.735,20.925,2.6,44.256,17.513,60.408a98.572,98.572,0,0,0,48.061,28.539c13.452,3.384,27.439,3.87,41.3,4.34,38.387,1.3,77.763,2.466,114.137-9.87a198.346,198.346,0,0,0,33.16-15.065,24.82,24.82,0,0,0,8.6-6.775c2.774-3.949,3.129-9.072,3.1-13.9-.082-16.274-3.381-32.464-2.6-48.719.434-9,2.119-18,1.289-26.976-1.881-20.356-18.046-38.575-38.033-42.867-10.319-2.216-21.021-1.008-31.526,0a803.876,803.876,0,0,1-82.049,3.669c-27.99-.179-55.807-4.452-83.658-4.9-8.236-.132-8.07,2.407-10.692,10.378A194.143,194.143,0,0,0,382.854,622.951Z" transform="translate(-78.824 211.806)" fill="#2f2e41"/>
    <path id="Path_4071" data-name="Path 4071" d="M441.285,359.935c-1.345,7.043-2.8,14.343-7.031,20.131-4.87,6.659-12.809,10.464-18.048,16.837-7.885,9.592-8.338,23.091-8.37,35.508-.03,11.439.2,23.64,6.582,33.135,4.14,6.162,10.439,10.483,16.6,14.632,23.923,16.122,49.774,32.533,78.617,33.065,11.951.22,24.765-2.866,32.628-11.868a48.992,48.992,0,0,0,7.9-14.094,187.159,187.159,0,0,0,13.248-56.975c.657-9.207.594-18.682-2.522-27.37-3.5-9.769-10.589-17.808-15.271-27.07a60.265,60.265,0,0,1-5.8-35.661,3.851,3.851,0,0,0-.2-2.585,3.765,3.765,0,0,0-3.1-1.257l-57.191-4.117a124.469,124.469,0,0,1-15.879-1.816c-3.083-.627-11.226-5.006-14.166-3.841C443.83,328.744,442.4,354.094,441.285,359.935Z" transform="translate(-57.823 72.991)" fill="#f8b3bd"/>
    <path id="Path_4073" data-name="Path 4073" d="M447.916,440.863c4.373,4.571,9.007,9.1,14.738,11.776,5.7,2.665,12.122,3.329,18.412,3.506,15.125.425,31.521-2.346,42.043-13.22,13.563-14.017,13.116-36.625,23.747-52.977a11.8,11.8,0,0,1,3.426-3.747,11.1,11.1,0,0,1,5.827-1.34c13.427-.126,25.122,8.583,35.678,16.881,4.729,3.718,9.575,7.569,12.558,12.792a43.365,43.365,0,0,1,4.235,12.969c5.238,25.57,6.934,51.715,8.618,77.762.93,14.387,1.86,28.788,1.791,43.2-.227,47.5-11.267,94.2-22.245,140.411-1.415,5.954-3.351,12.61-8.765,15.462a21.609,21.609,0,0,1-7.648,1.867c-31.444,3.693-62.953,7.39-94.61,7.878q-18.531.286-37.045-.9a19.949,19.949,0,0,1-6.24-1.088,17.6,17.6,0,0,1-6.8-5.777c-17.124-21.578-18.134-51.41-18.025-78.956q.4-101.022,7.219-201.883c.375-5.55.457-12.29-3.542-16.656C428.481,420.357,438.5,431.018,447.916,440.863Z" transform="translate(-52.685 103.754)" fill="#f5f8fa"/>
    <path id="Path_4074" data-name="Path 4074" d="M470.471,360.658c-2.834,5.13-23.727,17.868-27.76,22.12-22.536,23.755-63.669,22.864-84.28,48.307-7.252,8.952-11.019,20.2-13.79,31.382-3.919,15.815-6.012,33.063.553,47.976,6.317,14.349,19.615,24.269,28.644,37.087,9.913,14.073,14.37,31.161,18.642,47.837,3.154,12.313,6.334,24.931,5.106,37.582-1.4,14.384-8.357,27.555-12.467,41.409S380.3,704.714,389.8,715.6c6.981,8,17.931,11.171,28.4,12.955,13.359,2.277,26.936,2.925,40.474,3.524,11.964.528,25.152.631,34.35-7.038,7.257-6.052,10.412-15.873,10.82-25.314s-1.556-18.8-2.786-28.167c-1.275-9.712-1.765-19.51-2.176-29.3q-2.76-65.871-.753-131.828c.279-9.15.617-18.412-1.335-27.355-2.566-11.762-8.923-22.274-14.227-33.082-10.529-21.452-15.508-42.29-13.88-66.133C470.293,360.332,480.555,342.4,470.471,360.658Z" transform="translate(-93.014 87.077)" fill="#575a89"/>
    <path id="Path_4075" data-name="Path 4075" d="M513.016,365.266c4.316,4.436,18.984,5.9,24.475,8.756,5.044,2.625,10.625,4,16.089,5.57A208.878,208.878,0,0,1,610.1,405.533a34.308,34.308,0,0,1,9.452,8.164c3.072,4.273,4.187,9.606,5.228,14.764,2.688,13.318,5.391,26.8,4.786,40.37-.641,14.408-4.981,28.362-9.286,42.126L604.192,562.39c-12.008,38.39-24.093,77.158-27.471,117.24a275.763,275.763,0,0,0,2.475,66.588c.354,2.213.65,4.75-.811,6.449a6.35,6.35,0,0,1-3.94,1.813c-7.764,1.214-15.279-2.745-22.313-6.248a247.081,247.081,0,0,0-68.116-22.288,158.349,158.349,0,0,0,21.157-43.613,264.025,264.025,0,0,0,6.392-29.994l7.484-43.283c2.744-15.872,5.493-31.784,6.42-47.865a59.929,59.929,0,0,0-1.042-18.031c-1.433-5.714-4.283-10.951-6.835-16.26-12.333-25.655-18.121-54.932-13.268-82.98,2.124-12.275,6.251-24.566,4.53-36.9-1.655-11.862.065-21.081-2.979-32.821C493.377,325.99,504.894,356.92,513.016,365.266Z" transform="translate(-17.732 84.255)" fill="#575a89"/>
    <path id="Path_4076" data-name="Path 4076" d="M359.113,442.6c-5.622,11.668-15.023,21.608-18.222,34.158A74.628,74.628,0,0,0,339.3,494.61c-.076,9.033-.125,18.249,2.649,26.845,1.786,5.534,4.691,10.639,6.784,16.065a58.25,58.25,0,0,1,3.816,23.8c-.565,11.239-4.383,22.149-4.681,33.4-.469,17.69,7.713,34.32,15.7,50.114a36.841,36.841,0,0,1,53.55-17.531c2.106-1.945,2.331-5.139,2.413-8q.885-30.786,1.708-61.573c.864-31.743,1.688-63.91-5.614-94.814-3.3-13.953-8.427-27.852-17.831-38.675-4.952-5.7-21.762-20.709-29.891-14.325-3.656,2.871-2.8,10.686-3.38,14.643A62.122,62.122,0,0,1,359.113,442.6Z" transform="translate(-93.908 116.126)" fill="#575a89"/>
    <path id="Path_4077" data-name="Path 4077" d="M614.143,419.056c2.659,8.281,2.819,17.13,2.872,25.827q.162,26.613-.706,53.219c-.3,9.081-.7,18.286-3.457,26.944-1.815,5.71-4.618,11.064-6.493,16.755-5.62,17.054-2.55,35.552-2.068,53.5a60.789,60.789,0,0,1-1.472,17.307c-2.966,11.128-10.936,20.119-16.5,30.2-5.283,9.576-8.471,20.311-14.781,29.244s-17.234,16.012-27.821,13.269c-8.022-2.078-13.722-9.179-17.665-16.468a80.774,80.774,0,0,1-8.351-52.394c3.958-21.786,16.756-41.114,21.371-62.77,6.338-29.739-3.294-60.428-3.008-90.834a43.918,43.918,0,0,1,1.914-14.081c2.421-6.945,7.62-12.492,12.423-18.062a228,228,0,0,0,16.7-21.913c3.438-5.128,8.109-18.318,14.205-19.415C594.913,386.943,610.767,408.541,614.143,419.056Z" transform="translate(-0.666 106.043)" fill="#575a89"/>
    <path id="Path_4078" data-name="Path 4078" d="M332.67,603.842a82.825,82.825,0,0,0-23.038-2.449,57.5,57.5,0,0,0-53.382,67.783c1.6,8.738,5.2,16.977,9.129,24.945,6.11,12.4,13.437,24.77,24.748,32.715,6.617,4.648,14.274,7.546,21.841,10.4l59.571,22.441c8.764,3.3,17.528,6.6,26.379,9.665A515.971,515.971,0,0,0,535.7,796.73c14.3.852,28.824,1.089,42.779-2.168,3.311-.773,6.844-1.925,8.761-4.733a15,15,0,0,0,1.958-6.465l3.666-25.662c.516-3.613,1.013-7.417-.311-10.818-1.679-4.313-5.888-7.026-9.9-9.331-39.164-22.493-84.892-34.9-117.856-65.775-7.76-7.268-14.255-18.788-23.683-23.725-10.692-5.6-23.284-8.793-34.336-13.952C382.611,622.822,358.857,609.862,332.67,603.842Z" transform="translate(-138.092 217.687)" fill="#2f2e41"/>
    <path id="Path_4079" data-name="Path 4079" d="M354.16,627.683c21.056,6.6,109.954,52.308,125.191,68.267-2.042.736-71.34-38.1-73.419-38.723-18.9-5.673-37.908-11.383-55.857-19.685-3.611-1.67-23.459-9.52-22.56-14.076C328.528,618.324,350.422,626.511,354.16,627.683Z" transform="translate(-100.108 228.444)" opacity="0.1"/>
    <path id="Path_4080" data-name="Path 4080" d="M546.842,756.863a4.948,4.948,0,0,0,3.338-.982,5.156,5.156,0,0,0,1.043-3.841q-.049-17.481-.1-34.961c-10.054-4.79-21.3-6.325-32.337-7.8l-51.5-6.885c1.183.159-8.053,22.183-6.637,25.123,2.5,5.182,21.571,9.775,26.954,12.222C506.319,748.243,525.765,757.595,546.842,756.863Z" transform="translate(-30.106 270.865)" fill="#f8b3bd"/>
    <path id="Path_4081" data-name="Path 4081" d="M422.146,720.593c-9.724,1.549-20.577,2.918-26.875,10.487-7.986,9.6-4.586,23.909-.777,35.8a15.415,15.415,0,0,0,3.313,6.514c2.6,2.565,6.584,2.941,10.229,3.171,8.868.562,18.306,1,26.054-3.348,3.669-2.06,6.7-5.07,10.121-7.523a64.87,64.87,0,0,1,18.608-8.508,188.161,188.161,0,0,1,37.353-7.7c4.97-.507,10.039-.832,14.715-2.594s9-5.253,10.363-10.061c1.795-6.353-1.9-12.831-5.439-18.4-4.412-6.942-9.085-14.25-15.663-19.359-9.6-7.454-14.343-1.732-24.01,3.038A203.732,203.732,0,0,1,422.146,720.593Z" transform="translate(-66.994 267.229)" fill="#f8b3bd"/>
    <path id="Path_4082" data-name="Path 4082" d="M435.1,725.5l-61.744-18.249c-7.509-2.22-15.147-4.459-22.977-4.453s-16.023,2.573-21.1,8.534c-4.788,5.619-6.158,13.3-7.352,20.584L319.378,747.5c-1.3,7.92-2.6,15.992-1.429,23.931s5.221,15.872,12.266,19.716c8.544,4.661,19.016,2.385,28.552.435a310.821,310.821,0,0,1,58.511-6.275c7.391-.088,15.142,0,21.673-3.456,7.763-4.115,12.406-12.813,13.205-21.563C453.37,746.978,448.933,729.588,435.1,725.5Z" transform="translate(-105.366 271.079)" fill="#2f2e41"/>
    <path id="Path_4083" data-name="Path 4083" d="M542,711.524c8-1.4,15.068-5.953,22.738-8.637,10.8-3.78,22.494-3.78,33.932-3.738,4.2.015,8.67.11,12.165,2.437,5.038,3.354,6.33,10.067,7.186,16.058q2.585,18.075,5.169,36.15c.972,6.8,1.938,13.781.422,20.48s-6.083,13.157-12.73,14.885c-8.074,2.1-15.989-3.059-23.612-6.446-19.054-8.468-41.2-6.3-61.069-12.633-3.687-1.175-7.636-2.971-9.14-6.536a14.871,14.871,0,0,1-.711-6.247c.34-11.621-2.111-27.487,1.388-38.593C520.882,708.719,533.063,711.524,542,711.524Z" transform="translate(-0.99 269.154)" fill="#2f2e41"/>
    <path id="Path_4084" data-name="Path 4084" d="M707.322,594.558a107.218,107.218,0,0,1,37.771-2.58c10.1,1.112,20.5,3.922,27.873,10.911,8.973,8.507,11.856,21.662,12.1,34.024a106.3,106.3,0,0,1-23.1,67.887,61.589,61.589,0,0,1-13.209,12.716,86.928,86.928,0,0,1-17.186,8.282l-133.407,52.62c-35.1,13.843-70.316,27.726-106.924,36.852a8.333,8.333,0,0,1-11.213-4.066,276.387,276.387,0,0,1-29.239-53.486,3.6,3.6,0,0,1,1.593-5.683l94.36-54.216c6.759-3.884,13.593-7.823,19.206-13.233a47.679,47.679,0,0,0,9.86-13.728c1.956-4.085,2.138-13.726,4.637-16.745,2.446-2.957,10.814-3.193,14.678-4.355a133.262,133.262,0,0,0,15.98-6.041c21.107-9.443,39.9-23.163,60.138-34.219A154.293,154.293,0,0,1,707.322,594.558Z" transform="translate(-35.652 212.422)" fill="#2f2e41"/>
    <path id="Path_4085" data-name="Path 4085" d="M635.758,623.539c-16.211,12.176-37.2,23.368-53.269,35.865-5.484,4.265-96.9,55.658-98.188,62.483,14.99,2.526,110.476-64.274,124.137-70.94s25.772-16.065,37.773-25.4c3.058-2.378,16.019-9.526,7.24-12.182C648.506,611.872,639.409,621.1,635.758,623.539Z" transform="translate(-17.582 223.93)" opacity="0.1"/>
    <path id="Path_4088" data-name="Path 4088" d="M369.579,665.8c3.566,5.324,7.745,10.531,13.473,13.4,7.157,3.589,15.993,2.948,23.16-.621a40.765,40.765,0,0,0,16.714-16.757c7.844-13.852,9.469-30.427,8.49-46.315s-4.371-31.533-5.873-47.381c-1.091-11.52-1.18-23.109-1.268-34.68-.018-2.432.021-5.052,1.457-7.014,1.738-2.372,4.919-3.026,7.738-3.864,15.831-4.7,26.34-19.542,33.873-34.239,5.031-9.813,9.405-20.541,8.435-31.526s-8.866-22.052-19.837-23.172c-9.044-.924-17.4,4.821-23.92,11.153a102.571,102.571,0,0,0-30.033,60.019c-1.432,11.17-1.022,22.643-4.06,33.486-6.487,23.152-26.782,37.347-36.9,58.18C349.887,619.432,356.038,645.493,369.579,665.8Z" transform="translate(-85.492 129.379)" fill="#f8b3bd"/>
    <circle id="Ellipse_482" data-name="Ellipse 482" cx="17.852" cy="17.852" r="17.852" transform="translate(419.531 510.831)" fill="#d0cde1"/>
    <path id="Path_4090" data-name="Path 4090" d="M991.807,423.632a95.641,95.641,0,1,0,95.641,95.641,95.641,95.641,0,0,0-95.641-95.641Zm47.267,71.384c.05,1.033.075,2.091.075,3.149,0,32.267-24.534,69.471-69.446,69.471a68.165,68.165,0,0,1-37.33-11.033,49.006,49.006,0,0,0,36.121-10.1,24.425,24.425,0,0,1-22.8-16.952,23.007,23.007,0,0,0,4.585.453,24.551,24.551,0,0,0,6.418-.855,24.408,24.408,0,0,1-19.567-23.931v-.3a23.824,23.824,0,0,0,11.083,3.048,24.435,24.435,0,0,1-7.582-32.594,69.111,69.111,0,0,0,50.277,25.516,23.876,23.876,0,0,1-.63-5.567,24.38,24.38,0,0,1,42.191-16.675,48.462,48.462,0,0,0,15.491-5.919,24.472,24.472,0,0,1-10.731,13.5,49.294,49.294,0,0,0,14.005-3.854,49.651,49.651,0,0,1-12.166,12.645Z" transform="translate(199.167 124.164)" fill="#363636"/>
    <circle id="Ellipse_483" data-name="Ellipse 483" cx="16.995" cy="16.995" r="16.995" transform="translate(1143.226 264.777)" fill="#363636"/>
    <path id="Path_4091" data-name="Path 4091" d="M974.573,221.5H932.086a21.306,21.306,0,0,0-21.243,21.243v42.487a21.306,21.306,0,0,0,21.243,21.244h42.487a21.305,21.305,0,0,0,21.243-21.244V242.741A21.306,21.306,0,0,0,974.573,221.5Zm-21.244,67.979a23.447,23.447,0,1,1,.007,0Zm27.617-46.736a6.357,6.357,0,1,1,4.511-1.862,6.373,6.373,0,0,1-4.511,1.862Z" transform="translate(206.891 17.788)" fill="#363636"/>
    <path id="Path_4092" data-name="Path 4092" d="M972.73,183.859a100.826,100.826,0,1,0,100.826,100.826A100.826,100.826,0,0,0,972.73,183.859Zm52.075,121.176a29.828,29.828,0,0,1-29.741,29.741H952.577a29.827,29.827,0,0,1-29.741-29.741V262.549a29.828,29.828,0,0,1,29.741-29.741h42.487a29.828,29.828,0,0,1,29.741,29.741Z" transform="translate(186.399 -2.019)" fill="#363636"/>
    <path id="Path_4093" data-name="Path 4093" d="M704.207,64.718a99.207,99.207,0,1,0,99.207,99.207A99.207,99.207,0,0,0,704.207,64.718Zm31.281,60.029h-12.7c-8.67,0-10.325,4.1-10.325,10.145v12.843h20.65l-2.7,20.147H712.464v54.684H689.439V167.883H672.927V147.736h16.513V132.842c0-17.844,12.376-27.558,28.313-27.558,7.627,0,15.829.576,17.736.827Z" transform="translate(45.938 -64.718)" fill="#363636"/>
    <path id="Path_4094" data-name="Path 4094" d="M441.285,359.935c-1.345,7.043-2.8,14.343-7.031,20.131-4.87,6.659-12.809,10.464-18.048,16.837-7.885,9.592-8.338,23.091-8.37,35.508-.03,11.439.2,23.64,6.582,33.135,4.14,6.162,10.439,10.483,16.6,14.632,23.923,16.122,49.774,32.533,78.617,33.065,11.951.22,24.765-2.866,32.628-11.868a48.992,48.992,0,0,0,7.9-14.094,187.159,187.159,0,0,0,13.248-56.975c.657-9.207.594-18.682-2.522-27.37-3.5-9.769-10.589-17.808-15.271-27.07a60.265,60.265,0,0,1-5.8-35.661,3.851,3.851,0,0,0-.2-2.585,3.765,3.765,0,0,0-3.1-1.257l-57.191-4.117a124.469,124.469,0,0,1-15.879-1.816c-3.083-.627-11.226-5.006-14.166-3.841C443.83,328.744,442.4,354.094,441.285,359.935Z" transform="translate(-57.823 72.991)" fill="rgba(0,0,0,0.09)"/>
    <path id="Path_4086" data-name="Path 4086" d="M567.567,360.015h-142.3a21.8,21.8,0,0,0-21.8,21.8V389.8h-1.546v17.852h1.546v12.5h-1.546v10.711h1.546V562.582a21.8,21.8,0,0,0,21.8,21.8H567.568a21.8,21.8,0,0,0,21.8-21.8V381.813a21.8,21.8,0,0,0-21.8-21.8Z" transform="translate(-60.937 90.685)" fill="#3f3d56"/>
    <path id="Path_4089" data-name="Path 4089" d="M592.91,601.16a43.756,43.756,0,0,1-24.538,23.576,33.889,33.889,0,0,1-21.331,1.306,23.653,23.653,0,0,1-15.626-13.977,37.638,37.638,0,0,1-1.76-10.5c-1.015-15.613-.623-31.7,5.048-46.283,2.188-5.624,5.137-10.958,6.863-16.741,1.969-6.6,2.283-13.554,2.584-20.43l1.864-42.6a27.727,27.727,0,0,0-.633-9.237c-1.859-6.164-7.62-10.169-12.906-13.845-12.766-8.878-25.381-19.237-31.566-33.5-1.893-4.365-3.142-9.217-2.181-13.877,1.744-8.459,10.281-13.935,18.719-15.781a41.871,41.871,0,0,1,50.2,33.741c.835,4.807.823,9.718,1.312,14.573,1.037,10.3,4.306,20.226,6.351,30.372,5.038,24.993,2.427,50.828,7.409,75.816C586.882,564.666,602.589,578.3,592.91,601.16Z" transform="translate(-10.163 105.572)" fill="#f8b3bd"/>
    <circle id="Ellipse_481" data-name="Ellipse 481" cx="83.906" cy="83.906" r="83.906" transform="translate(354.249 272.783)" fill="#f8b3bd"/>
    <path id="Path_4087" data-name="Path 4087" d="M413.126,198.01,340.949,160.2,241.276,175.67l-20.621,91.08,51.334-1.975,14.341-33.462v32.911l23.686-.911,13.749-53.273,8.591,56.71,84.207-1.719Z" transform="translate(116.121 84.309)" fill="#2f2e41"/>
  </g>
</svg>
