<svg xmlns="http://www.w3.org/2000/svg" width="14.999" height="12" viewBox="0 0 14.999 12">
  <path id="Icon_awesome-user-edit" data-name="Icon awesome-user-edit" d="M5.25,6a3,3,0,1,0-3-3A3,3,0,0,0,5.25,6Zm2.1.75H6.959a4.08,4.08,0,0,1-3.417,0H3.15A3.151,3.151,0,0,0,0,9.9v.975A1.125,1.125,0,0,0,1.125,12H7.568a1.126,1.126,0,0,1-.061-.5l.159-1.427.028-.26.185-.185L9.691,7.816A3.118,3.118,0,0,0,7.35,6.75Zm1.062,3.405-.159,1.43A.373.373,0,0,0,8.665,12l1.427-.159,3.232-3.232-1.68-1.68-3.232,3.23ZM14.836,6.3l-.888-.888a.562.562,0,0,0-.792,0L12.27,6.3l-.1.1,1.683,1.68.98-.98A.564.564,0,0,0,14.836,6.3Z" fill="#8899a6"/>
</svg>
