<svg xmlns="http://www.w3.org/2000/svg" width="12.617" height="9.813" viewBox="0 0 12.617 9.813">
  <path id="Icon_awesome-comments" data-name="Icon awesome-comments" d="M9.112,4.5C9.112,2.568,7.073,1,4.556,1S0,2.568,0,4.5A2.972,2.972,0,0,0,.832,6.52,4.93,4.93,0,0,1,.048,7.714.174.174,0,0,0,.015,7.9a.172.172,0,0,0,.16.105,3.857,3.857,0,0,0,1.943-.548,5.574,5.574,0,0,0,2.438.548C7.073,8.009,9.112,6.441,9.112,4.5Zm2.672,4.819a2.968,2.968,0,0,0,.832-2.015A3.644,3.644,0,0,0,9.785,4.064a3.255,3.255,0,0,1,.028.44c0,2.32-2.359,4.206-5.257,4.206a6.567,6.567,0,0,1-.694-.042,4.735,4.735,0,0,0,4.2,2.144,5.543,5.543,0,0,0,2.438-.548,3.857,3.857,0,0,0,1.943.548.173.173,0,0,0,.16-.105.176.176,0,0,0-.033-.191A4.878,4.878,0,0,1,11.785,9.324Z" transform="translate(0 -1)" fill="#363636"/>
</svg>
